# xmcd
#
# Track frame offsets:
#	150
#	12300
#	29809
#	42163
#	59593
#	81193
#	99187
#	119184
#	133092
#	145012
#	159856
#	169653
#	183289
#	193939
#	204064
#	217564
#	228549
#
# Disc length: 3110 seconds
#
# Revision: 0
# Processed by: cddbd v1.5.2PL0 Copyright (c) Steve Scherf et al.
# Submitted via: EasyCDDAExtractor 10.0.2.1
#
DISCID=e60c2411
DTITLE=Various Artist - Home For Christmas
DYEAR=2005
DGENRE=Gospel
TTITLE0=Carroll Roberson - My Christmas Dream
TTITLE1=Comptons - The Night Before Christmas
TTITLE2=Common Destiny - What Child Is This
TTITLE3=Cricket Lee - Perfect Baby Jesus
TTITLE4=Sonny Clardy - Spirit Song
TTITLE5=Encouragers - One Bethlehem Night
TTITLE6=Smileys - The Star Of Bethelem
TTITLE7=Dixie Melody Boys - Do You Hear What I Hear
TTITLE8=Ernie Haase - All About Christmas
TTITLE9=Ray Cummins - Silent Night
TTITLE10=Billy Fields - The First Christmas Night
TTITLE11=Jan Walters - Think About My Son
TTITLE12=Buddy Davis - You're My Praise
TTITLE13=Ray Cimmins - Jingle Bell Rock
TTITLE14=Carroll Roberson - I Love To Be Home For Christmas
TTITLE15=Kim Hobart - Sing Hallelujah
TTITLE16=Prime Example - Seasons Beatings
EXTD=
EXTT0=
EXTT1=
EXTT2=
EXTT3=
EXTT4=
EXTT5=
EXTT6=
EXTT7=
EXTT8=
EXTT9=
EXTT10=
EXTT11=
EXTT12=
EXTT13=
EXTT14=
EXTT15=
EXTT16=
PLAYORDER=
